<?xml version="1.0" encoding="UTF-8"?>
<svg version="1.1" xmlns="http://www.w3.org/2000/svg" width="500" height="500">
<path d="M0 0 C165 0 330 0 500 0 C500 165 500 330 500 500 C335 500 170 500 0 500 C0 335 0 170 0 0 Z " fill="#1A0B2E" transform="translate(0,0)"/>
<path d="M0 0 C14.26533771 -0.04687923 28.53066334 -0.08193315 42.79606247 -0.10362434 C49.42087231 -0.1140378 56.0456302 -0.12815239 62.67041016 -0.15087891 C69.07003537 -0.17269431 75.46961078 -0.18458695 81.86927032 -0.18975449 C84.30435215 -0.19343466 86.73943141 -0.20062093 89.17449188 -0.21146011 C92.5991341 -0.22609061 96.02357348 -0.22797312 99.44824219 -0.22705078 C100.44303085 -0.23424133 101.43781952 -0.24143188 102.4627533 -0.24884033 C112.31910002 -0.22032979 121.87416434 1.09785774 131.0625 4.75 C131.73587402 5.01095459 132.40924805 5.27190918 133.10302734 5.54077148 C150.28984709 12.37332063 161.39618799 22.12643521 168.87109375 39.21484375 C173.29348955 50.12546038 172.99533213 66.3815705 168.9375 77.4375 C167.54296875 80.3515625 167.54296875 80.3515625 166 83 C165.48050781 83.89460938 164.96101562 84.78921875 164.42578125 85.7109375 C155.22000729 100.00241875 140.73854773 107.70312586 124.8046875 112.40625 C122.10707632 112.97733203 119.7469007 113.12074289 117 113 C117 113.66 117 114.32 117 115 C117.82113281 115.11085938 118.64226562 115.22171875 119.48828125 115.3359375 C133.67090276 118.01785703 148.98118785 124.3298241 158 136 C167.00851915 149.2227317 170.93712873 163.27678378 171.24609375 179.33984375 C171.2790822 180.74805192 171.31229286 182.1562549 171.34570312 183.56445312 C171.39255095 185.73571615 171.4369394 187.9069664 171.47680664 190.07836914 C171.26116703 208.56283244 171.26116703 208.56283244 176 226 C181.63512313 229.3030029 188.70840741 228.61069635 195 228 C197.99692089 226.95877371 200.26259704 225.6527716 203 224 C203.99 224 204.98 224 206 224 C205.81640625 225.8125 205.81640625 225.8125 205 228 C191.48136791 237.77839573 172.2719745 240.03346258 156.14453125 237.5625 C149.22605986 235.6572411 144.11228185 231.24101783 140.23828125 225.296875 C133.8889034 213.55129466 133.64256627 200.81451328 133 187.75 C131.70750629 152.8111081 131.70750629 152.8111081 114.6875 123.5 C101.01810728 112.22793754 79.7857032 115.49330323 64 115 C64 152.95 64 190.9 64 230 C73.9 230 83.8 230 94 230 C94 231.98 94 233.96 94 236 C62.65 236 31.3 236 -1 236 C-1 234.02 -1 232.04 -1 230 C9.23 230 19.46 230 30 230 C30 155.75 30 81.5 30 5 C20.1 5 10.2 5 0 5 C0 3.35 0 1.7 0 0 Z " fill="#FCFBFC" transform="translate(204,162)"/>
<path d="M0 0 C31.68 0 63.36 0 96 0 C96 1.65 96 3.3 96 5 C85.77 5 75.54 5 65 5 C65 80.57 65 156.14 65 234 C75.23 234 85.46 234 96 234 C96 235.65 96 237.3 96 239 C64.32 239 32.64 239 0 239 C0 237.35 0 235.7 0 234 C10.23 234 20.46 234 31 234 C31 158.43 31 82.86 31 5 C20.77 5 10.54 5 0 5 C0 3.35 0 1.7 0 0 Z " fill="#FEFEFE" transform="translate(93,66)"/>
<path d="M0 0 C52.41891892 0 52.41891892 0 63 9 C73.55085457 20.33410578 74.33790288 33.87522059 74.26074219 48.56542969 C74.25002473 50.99439459 74.26067942 53.4226201 74.2734375 55.8515625 C74.28056659 63.46269982 74.16704822 70.64139021 72 78 C71.73960937 78.9075 71.47921875 79.815 71.2109375 80.75 C68.31110597 88.55515403 63.61568854 95.371879 56.125 99.375 C35.7725046 107.3926497 27.31719885 104 0 104 C0 69.68 0 35.36 0 0 Z " fill="#1A0B2E" transform="translate(268,168)"/>
</svg>
